# xmcd
#
# Track frame offsets: 
#        150
#        11269
#        21144
#        33395
#        44574
#        58404
#        71891
#        84211
#        94249
#        107833
#        118625
#        132036
#        144473
#        158305
#        172557
#        185532
#        198504
#        211793
#        224701
#        236698
#        248122
#        261469
#        274135
#        288181
#        301912
#        317246
#
# Disc length: 4416 seconds
#
# Revision: 1
# Processed by: cddbd v1.5.2PL0 Copyright (c) Steve Scherf et al.
# Submitted via: ExactAudioCopy v0.99pb5
#
DISCID=76113e1a
DTITLE=King Oliver - Jazz 1920-1948 - The Essential Collection Vol. 1,
DTITLE=CD 1 of 5
DYEAR=1997
DGENRE=Jazz
TTITLE0=Canal Street Blues
TTITLE1=Mandy Lee Blues
TTITLE2=Weather Bird Rag
TTITLE3=Dipper Mouth Blues
TTITLE4=Froggle Moore
TTITLE5=Snake Rag
TTITLE6=Sweet Lovin' Man
TTITLE7=Dipper Mouth Blues
TTITLE8=Jazzin' Babie' Blues
TTITLE9=Alligator Hop
TTITLE10=Chatanooga Stomp
TTITLE11=London Café Blues
TTITLE12=Buddy's Habit
TTITLE13=Tears
TTITLE14=Riverside Blues
TTITLE15=Sweet Baby Doll
TTITLE16=Working Man Blues
TTITLE17=Mabel's Dream
TTITLE18=The Southern Stomps
TTITLE19=Morning Dove Blues
TTITLE20=Too Bad
TTITLE21=Wa Wa Wa
TTITLE22=Snag it
TTITLE23=Jet Black Blues
TTITLE24=Sewet Like This
TTITLE25=Too Late
EXTD=
EXTT0=
EXTT1=
EXTT2=
EXTT3=
EXTT4=
EXTT5=
EXTT6=
EXTT7=
EXTT8=
EXTT9=
EXTT10=
EXTT11=
EXTT12=
EXTT13=
EXTT14=
EXTT15=
EXTT16=
EXTT17=
EXTT18=
EXTT19=
EXTT20=
EXTT21=
EXTT22=
EXTT23=
EXTT24=
EXTT25=
PLAYORDER=
